<svg width="625" height="280" viewBox="0 0 625 280" fill="none" xmlns="http://www.w3.org/2000/svg">
<path d="M259.26 33.6909C261.521 34.8938 261.521 34.8938 263.84 36.5161C264.708 37.1225 265.575 37.7289 266.469 38.3537C271.205 41.8089 275.853 45.3713 280.483 48.967C287.885 54.6763 295.313 60.3185 302.956 65.6994C307.099 68.6172 311.079 71.682 314.955 74.9494C316.746 76.1213 316.746 76.1213 318.836 75.5982C321.493 74.6992 323.254 73.5252 325.493 71.8334C326.319 71.215 327.145 70.5966 327.996 69.9594C328.88 69.2875 329.763 68.6156 330.673 67.9233C332.566 66.5025 334.458 65.0819 336.351 63.6616C337.321 62.9301 338.291 62.1986 339.29 61.445C344.787 57.3129 350.325 53.2358 355.87 49.1696C359.699 46.3525 363.488 43.5213 367.154 40.4913C376.246 33.0948 376.246 33.0948 381.901 32.7188C387.008 33.2877 389.656 35.5274 393.1 39.2458C394.386 43.1196 394.352 46.5784 394.332 50.6061C394.332 51.4193 394.332 52.2325 394.332 53.0703C394.331 55.7574 394.323 58.4444 394.314 61.1315C394.312 62.9948 394.31 64.8582 394.309 66.7216C394.305 71.6256 394.294 76.5296 394.282 81.4336C394.271 86.4379 394.266 91.4423 394.26 96.4466C394.248 106.265 394.229 116.084 394.206 125.903C384.351 125.903 374.495 125.903 364.341 125.903C364.341 119.67 364.341 113.438 364.341 107.016C367.626 107.016 370.911 107.016 374.296 107.016C373.931 92.7178 373.566 78.4193 373.19 63.6876C370.338 65.9332 367.486 68.1788 364.548 70.4924C354.678 78.229 344.691 85.8159 334.504 93.1294C332.273 94.739 332.273 94.739 330.364 96.4743C325.644 100.481 321.565 101.273 315.408 100.963C310.063 99.8906 306.526 96.9808 302.398 93.5455C300.584 92.1197 298.77 90.6949 296.954 89.2708C296.034 88.533 295.113 87.7953 294.165 87.0352C289.532 83.3673 284.763 79.8895 280 76.3946C278.311 75.1436 276.623 73.8923 274.936 72.6406C270.847 69.6095 266.715 66.6556 262.578 63.6876C262.578 77.986 262.578 92.2845 262.578 107.016C265.863 107.016 269.149 107.016 272.533 107.016C272.533 113.249 272.533 119.482 272.533 125.903C262.678 125.903 252.822 125.903 242.668 125.903C242.543 115.009 242.442 104.116 242.382 93.2215C242.353 88.1625 242.314 83.104 242.251 78.0453C242.191 73.1612 242.158 68.2777 242.143 63.3933C242.133 61.532 242.113 59.6707 242.083 57.8097C242.043 55.1977 242.038 52.5877 242.04 49.9754C242.02 49.2099 242 48.4443 241.98 47.6555C242.045 41.4922 244.026 38.9842 248.199 34.8019C251.838 32.9741 255.34 32.9837 259.26 33.6909Z" fill="url(#paint0_linear_4061_2943)"/>
<path d="M486.003 45.9512C494.904 54.2747 500.8 64.0705 501.683 76.4515C501.743 79.4801 501.738 82.5011 501.705 85.5302C501.702 86.6273 501.698 87.7244 501.695 88.8547C501.683 92.3295 501.655 95.804 501.627 99.2787C501.616 101.647 501.606 104.015 501.597 106.383C501.572 112.162 501.534 117.941 501.489 123.72C495.648 123.72 489.808 123.72 483.791 123.72C483.426 120.054 483.061 116.388 482.685 112.611C482.069 113.213 481.453 113.816 480.818 114.438C471.499 123.212 463.482 126.183 450.607 125.942C438.481 124.354 428.005 119.178 420.228 109.594C412.242 97.6546 410.695 85.5409 411.893 71.5039C414.443 59.2107 421.917 49.9815 431.803 42.6182C449.026 31.8149 470.041 33.9009 486.003 45.9512ZM435.644 62.8026C430.298 69.483 429.035 76.4543 429.591 84.8358C431.282 92.9531 434.751 99.2039 441.555 104.039C448.721 108.096 456.615 109.27 464.572 107.056C471.535 104.32 477.165 99.4651 481.026 93.0293C484.073 85.9458 483.977 77.8022 481.669 70.5231C478.204 62.976 474.161 59.1419 466.992 55.0474C454.961 51.2835 444.178 53.5284 435.644 62.8026Z" fill="#101012"/>
<path d="M19.6671 0.193757C20.9967 0.200918 22.3263 0.208079 23.6962 0.215456C25.7633 0.243383 25.7633 0.243383 27.8722 0.271874C29.9714 0.286911 29.9714 0.286911 32.1131 0.302253C35.5618 0.328396 39.0105 0.368247 42.4591 0.410748C42.4591 6.27677 42.4591 12.1428 42.4591 18.1866C31.5086 18.7365 31.5086 18.7365 20.3368 19.2976C20.3368 56.6935 20.3368 94.0894 20.3368 132.619C28.0022 132.985 35.6676 133.352 43.5653 133.73C43.5653 139.596 43.5653 145.462 43.5653 151.505C39.1379 151.608 34.7136 151.696 30.2856 151.749C28.7826 151.772 27.2796 151.802 25.7769 151.841C9.47092 152.25 9.47092 152.25 3.74508 147.061C0.362596 139.914 -0.0448357 133.804 0.0149083 125.968C0.0108702 124.776 0.0068322 123.584 0.00267177 122.357C-0.00625571 118.438 0.0087283 114.521 0.0249001 110.603C0.0254741 107.869 0.0248999 105.136 0.0232292 102.402C0.0233282 96.6821 0.0348304 90.9622 0.0548754 85.2422C0.0799823 77.9176 0.0805665 70.5932 0.0731057 63.2686C0.0694065 57.6272 0.0767555 51.9858 0.0876292 46.3444C0.0918805 43.6438 0.093164 40.9432 0.0914057 38.2425C0.0909946 34.4668 0.104986 30.6915 0.122927 26.9158C0.120187 25.8046 0.117447 24.6934 0.114623 23.5485C0.166918 16.6387 0.234955 10.1574 4.6438 4.50752C9.45207 0.781943 13.6779 0.136738 19.6671 0.193757Z" fill="#101012"/>
<path d="M138.696 38.1904C144.901 38.1904 151.107 38.1904 157.5 38.1904C157.516 39.6189 157.532 41.0474 157.549 42.5191C157.613 47.8552 157.699 53.1908 157.79 58.5265C157.827 60.829 157.858 63.1317 157.883 65.4344C157.921 68.7581 157.978 72.0809 158.04 75.4042C158.047 76.4219 158.054 77.4396 158.061 78.4881C158.242 86.563 159.321 93.9071 164.551 100.267C171.79 106.153 177.08 106.863 186.259 105.961C191.823 104.132 195.307 100.883 198.426 95.9619C201.578 88.9803 202.258 83.1266 202.311 75.5127C202.331 74.4403 202.35 73.3678 202.371 72.2629C202.43 68.8676 202.468 65.4724 202.505 62.0767C202.542 59.7621 202.58 57.4476 202.62 55.133C202.713 49.4856 202.787 43.8383 202.851 38.1904C209.056 38.1904 215.261 38.1904 221.655 38.1904C221.737 44.9081 221.797 51.6254 221.837 58.3434C221.854 60.6233 221.876 62.9031 221.905 65.1829C222.343 100.633 222.343 100.633 209.211 114.571C200.909 122.474 191.993 125.87 180.534 125.998C168.743 125.427 158.363 122.122 149.757 113.738C140.585 102.478 138.511 90.7907 138.588 76.5977C138.59 75.4974 138.591 74.3972 138.593 73.2636C138.599 69.7661 138.613 66.2686 138.627 62.7711C138.632 60.3929 138.637 58.0147 138.642 55.6364C138.654 49.8211 138.673 44.0058 138.696 38.1904Z" fill="#101012"/>
<path d="M580.688 0.379372C585.829 0.289145 590.969 0.222856 596.111 0.170513C598.293 0.128513 598.293 0.128513 600.519 0.0856646C602.632 0.0695107 602.632 0.0695107 604.786 0.0530305C606.725 0.0267804 606.725 0.0267804 608.702 0C613.865 0.532174 617.721 2.1425 621.226 5.94893C623.445 9.62565 623.846 12.5975 623.861 16.7808C623.868 17.863 623.874 18.9452 623.881 20.0601C623.882 21.2458 623.883 22.4316 623.885 23.6532C623.893 25.5283 623.893 25.5283 623.902 27.4412C623.918 31.586 623.926 35.7306 623.932 39.8754C623.939 42.7516 623.945 45.6278 623.952 48.504C623.962 53.7675 623.969 59.031 623.973 64.2944C623.978 72.0346 623.998 79.7745 624.031 87.5146C624.058 94.224 624.067 100.933 624.069 107.643C624.072 110.495 624.081 113.346 624.096 116.198C624.115 120.187 624.113 124.176 624.106 128.165C624.122 129.934 624.122 129.934 624.137 131.738C624.102 137.801 623.832 142.203 620.307 147.416C615.462 151.736 611.241 152.008 604.87 151.98C602.665 151.975 602.665 151.975 600.416 151.969C598.863 151.96 597.31 151.951 595.757 151.941C594.191 151.935 592.625 151.93 591.059 151.926C587.225 151.913 583.39 151.893 579.556 151.871C579.556 145.99 579.556 140.108 579.556 134.049C587.774 134.049 595.992 134.049 604.459 134.049C604.459 95.8194 604.459 57.5899 604.459 18.202C596.615 18.202 588.77 18.202 580.688 18.202C580.688 12.3205 580.688 6.43905 580.688 0.379372Z" fill="#101012"/>
<path d="M112.436 43.338C116.727 46.8835 119.176 49.4781 121 54.8428C119.259 55.9938 117.505 57.1241 115.746 58.2453C114.77 58.8768 113.795 59.5084 112.79 60.1591C109.938 61.5088 109.938 61.5088 107.502 61.2918C104.769 60.0628 103.162 58.1004 101.09 55.9538C97.4222 53.6239 94.3969 53.401 90.0975 53.3847C88.9697 53.3661 87.8418 53.3474 86.6798 53.3283C82.9055 53.7915 80.8523 54.7269 77.8611 57.0648C76.5777 60.9024 76.5777 60.9024 76.755 64.8418C79.2599 68.3624 82.3289 69.1085 86.3644 70.2578C87.6376 70.6359 88.9109 71.014 90.2228 71.4035C92.3905 72.0263 94.5586 72.6481 96.7315 73.2523C116.165 78.6779 116.165 78.6779 122.037 88.3809C124.024 95.5444 124.551 102.696 121.484 109.629C117.377 116.656 111.097 121.3 103.518 124.058C90.8526 126.842 76.8337 126.402 65.6938 119.28C61.6304 115.985 58.6293 112.525 55.7388 108.17C55.8511 105.931 55.8511 105.931 56.8449 103.726C59.0139 102.077 59.0139 102.077 61.6841 100.671C62.5596 100.196 63.4351 99.7202 64.3371 99.2304C66.7999 98.1715 66.7999 98.1715 70.1183 98.1715C70.5517 98.9964 70.9852 99.8213 71.4318 100.671C74.2811 105.013 77.3563 106.702 82.2856 108.17C88.345 108.888 93.7296 108.741 99.5686 106.92C102.931 104.255 103.722 102.393 104.408 98.1715C103.424 95.1487 102.709 94.0071 99.9013 92.4776C98.9474 92.1568 97.9935 91.836 97.0107 91.5055C95.9257 91.1375 94.8406 90.7694 93.7226 90.3902C89.7045 89.1865 85.6612 88.1553 81.5942 87.131C73.1741 84.905 65.5792 82.623 60.0941 75.4656C56.6265 69.0357 56.8248 61.9044 57.951 54.8428C60.718 48.0122 65.6898 42.4746 72.3305 39.289C85.9645 34.1336 100.476 34.5886 112.436 43.338Z" fill="#101012"/>
<path d="M573.396 39.2948C573.396 45.5275 573.396 51.7601 573.396 58.1816C571.412 57.5859 569.427 56.9901 567.382 56.3763C561.061 54.7948 556.208 54.443 550.168 57.0706C546.386 59.8949 545.037 62.6549 543.531 67.0696C543.176 69.9152 543.176 69.9152 543.178 72.9014C543.157 74.0354 543.135 75.1694 543.112 76.3377C543.099 77.5484 543.086 78.7591 543.073 80.0065C543.052 81.2563 543.03 82.5061 543.008 83.7937C542.942 87.778 542.891 91.7624 542.84 95.747C542.798 98.4514 542.754 101.156 542.71 103.86C542.604 110.483 542.511 117.107 542.425 123.73C536.22 123.73 530.014 123.73 523.621 123.73C523.539 115.706 523.479 107.682 523.439 99.6577C523.422 96.9315 523.4 94.2054 523.371 91.4793C523.33 87.5465 523.312 83.614 523.297 79.681C523.271 77.8715 523.271 77.8715 523.245 76.0254C523.242 63.3579 526.211 52.2848 535.3 43.1095C546.122 34.3769 561.002 34.3152 573.396 39.2948Z" fill="#101012"/>
<path d="M307.184 230.896H285.3V208.715C285.3 195.306 274.43 184.436 261.021 184.436C247.611 184.436 236.742 195.306 236.742 208.715V279.597L307.221 279.491C320.627 279.471 331.483 268.598 331.483 255.192C331.483 241.776 320.604 230.896 307.184 230.896Z" fill="url(#paint1_linear_4061_2943)"/>
<path d="M165.669 184.712C152.596 184.712 142 195.309 142 208.381C142 221.454 152.596 232.051 165.669 232.051H189.403V255.116C189.403 267.86 199.199 278.827 211.927 279.428C225.521 280.068 236.742 269.237 236.742 255.784V184.577L165.669 184.712Z" fill="url(#paint2_linear_4061_2943)"/>
<path d="M333.361 257.85C330.811 257.85 328.232 257.453 325.626 256.66C323.076 255.867 320.667 254.79 318.401 253.43C316.191 252.013 314.292 250.455 312.706 248.755L320.271 241.445C321.971 243.202 324.011 244.618 326.391 245.695C328.827 246.772 331.094 247.31 333.191 247.31C335.854 247.31 338.092 246.545 339.906 245.015C341.776 243.428 342.711 241.558 342.711 239.405C342.711 237.648 342.059 236.147 340.756 234.9C339.452 233.597 337.837 232.662 335.911 232.095C330.867 230.735 326.561 229.29 322.991 227.76C319.477 226.23 316.871 224.218 315.171 221.725C313.471 219.232 312.847 215.888 313.301 211.695C313.697 208.408 314.774 205.688 316.531 203.535C318.344 201.325 320.611 199.682 323.331 198.605C326.107 197.528 329.167 196.99 332.511 196.99C335.514 196.99 338.659 197.472 341.946 198.435C345.232 199.342 348.491 200.872 351.721 203.025L344.496 210.505C342.852 209.598 341.067 208.833 339.141 208.21C337.214 207.587 335.231 207.247 333.191 207.19C331.604 207.133 330.074 207.303 328.601 207.7C327.184 208.04 325.994 208.663 325.031 209.57C324.067 210.42 323.557 211.582 323.501 213.055C323.444 214.698 323.869 215.973 324.776 216.88C325.682 217.787 326.929 218.523 328.516 219.09C330.159 219.657 332.057 220.28 334.211 220.96C338.177 222.037 341.549 223.283 344.326 224.7C347.102 226.06 349.227 227.902 350.701 230.225C352.174 232.492 352.911 235.552 352.911 239.405C352.911 242.862 352.032 245.978 350.276 248.755C348.519 251.532 346.167 253.742 343.221 255.385C340.274 257.028 336.987 257.85 333.361 257.85ZM371.118 257.425C366.811 257.198 363.553 255.98 361.343 253.77C359.133 251.503 358.028 248.387 358.028 244.42C358.028 241.53 358.765 239.065 360.238 237.025C361.711 234.928 363.666 233.285 366.103 232.095C368.54 230.905 371.231 230.168 374.178 229.885C377.181 229.602 380.213 229.8 383.273 230.48V227.845C383.273 226.032 382.536 224.728 381.063 223.935C379.59 223.142 377.776 222.773 375.623 222.83C373.526 222.887 371.401 223.312 369.248 224.105C367.151 224.842 365.451 225.918 364.148 227.335L358.453 221.13C360.606 219.033 363.156 217.39 366.103 216.2C369.05 215.01 372.081 214.33 375.198 214.16C378.371 213.99 381.346 214.358 384.123 215.265C386.956 216.172 389.28 217.645 391.093 219.685C392.51 221.272 393.303 223.368 393.473 225.975C393.643 228.582 393.728 231.443 393.728 234.56V257H383.358V253.09C381.601 254.733 379.646 255.895 377.493 256.575C375.34 257.198 373.215 257.482 371.118 257.425ZM383.018 245.015V237.705C377.125 237.252 373.016 237.62 370.693 238.81C368.426 240 367.293 241.842 367.293 244.335C367.293 245.922 367.831 247.083 368.908 247.82C370.041 248.5 371.43 248.84 373.073 248.84C374.773 248.783 376.501 248.443 378.258 247.82C380.071 247.14 381.658 246.205 383.018 245.015ZM412.408 257H402.208V197.5H412.408V257ZM458.285 257H448.085V253.685C447.405 255.045 446.101 256.065 444.175 256.745C442.305 257.425 440.151 257.765 437.715 257.765C435.335 257.765 433.011 257.453 430.745 256.83C428.535 256.15 426.721 255.187 425.305 253.94C421.791 250.767 420.035 246.063 420.035 239.83V214.5H430.235V239.83C430.235 242.72 431.085 244.817 432.785 246.12C434.541 247.367 436.723 247.99 439.33 247.99C440.633 247.99 441.965 247.707 443.325 247.14C444.685 246.573 445.818 245.695 446.725 244.505C447.631 243.315 448.085 241.757 448.085 239.83V214.5H458.285V257ZM476.733 256.235C474.24 255.102 472.2 253.458 470.613 251.305C469.026 249.095 467.836 246.573 467.043 243.74C466.306 240.907 465.938 237.988 465.938 234.985C465.938 231.075 466.646 227.533 468.063 224.36C469.48 221.187 471.548 218.665 474.268 216.795C477.045 214.868 480.445 213.905 484.468 213.905C485.771 213.905 487.273 214.047 488.973 214.33C490.73 214.613 492.146 215.152 493.223 215.945V197.5H503.423V257H493.223V253.6C492.26 254.733 490.786 255.64 488.803 256.32C486.82 256.943 484.723 257.255 482.513 257.255C480.36 257.312 478.433 256.972 476.733 256.235ZM493.223 245.1V225.55C490.276 224.36 487.5 223.963 484.893 224.36C482.343 224.757 480.246 225.862 478.603 227.675C477.016 229.432 476.223 231.868 476.223 234.985C476.223 238.668 477.016 241.587 478.603 243.74C480.19 245.837 482.258 247.055 484.808 247.395C487.415 247.678 490.22 246.913 493.223 245.1Z" fill="#51C6EC"/>
<defs>
<linearGradient id="paint0_linear_4061_2943" x1="242.165" y1="125.93" x2="394.455" y2="53.5299" gradientUnits="userSpaceOnUse">
<stop stop-color="#0162E9"/>
<stop offset="1" stop-color="#08C2FF"/>
</linearGradient>
<linearGradient id="paint1_linear_4061_2943" x1="290.979" y1="232.662" x2="237.045" y2="280.603" gradientUnits="userSpaceOnUse">
<stop stop-color="#51C6EC"/>
<stop offset="1" stop-color="#08C2FF"/>
</linearGradient>
<linearGradient id="paint2_linear_4061_2943" x1="179.761" y1="249.713" x2="210.904" y2="212.789" gradientUnits="userSpaceOnUse">
<stop stop-color="#00BDFB"/>
<stop offset="1" stop-color="#0053C5"/>
</linearGradient>
</defs>
</svg>
